HIERARCHY
ROOT Hips
{
  OFFSET 0 0 0
  CHANNELS 6 Xposition Yposition Zposition Zrotation Yrotation Xrotation
  JOINT LeftThigh
  {
    OFFSET 8.409438 0 -5.917753
    CHANNELS 3 Zrotation Yrotation Xrotation
    JOINT LeftLeg
    {
      OFFSET 0 0 -42.358652
      CHANNELS 3 Zrotation Yrotation Xrotation
      JOINT LeftFoot
      {
        OFFSET 0 0 -39.357303
        CHANNELS 3 Zrotation Yrotation Xrotation
      }
    }
  }
  JOINT RightThigh
  {
    OFFSET -8.409438 0 -5.917753
    CHANNELS 3 Zrotation Yrotation Xrotation
    JOINT RightLeg
    {
      OFFSET 0 0 -42.358652
      CHANNELS 3 Zrotation Yrotation Xrotation
      JOINT RightFoot
      {
        OFFSET 0 0 -39.357303
        CHANNELS 3 Zrotation Yrotation Xrotation
      }
    }
  }
  JOINT SpineLow
  {
    OFFSET 0 0 4.719101
    CHANNELS 3 Zrotation Yrotation Xrotation
    JOINT SpineMid
    {
      OFFSET 0 0 12.899191
      CHANNELS 3 Zrotation Yrotation Xrotation
      JOINT Chest
      {
        OFFSET 0 0 12.899191
        CHANNELS 3 Zrotation Yrotation Xrotation
        JOINT LeftShoulder
        {
          OFFSET 7.550562 1.41573 9.438202
          CHANNELS 3 Zrotation Yrotation Xrotation
          JOINT LeftArm
          {
            OFFSET 9.155056 0 4.247191
            CHANNELS 3 Zrotation Yrotation Xrotation
            JOINT LeftForearm
            {
              OFFSET 0 0 25.771955
              CHANNELS 3 Zrotation Yrotation Xrotation
              JOINT LeftHand
              {
                OFFSET 0 0 25.197169
                CHANNELS 3 Zrotation Yrotation Xrotation
              }
            }
          }
        }
        JOINT RightShoulder
        {
          OFFSET -7.550562 1.41573 9.438202
          CHANNELS 3 Zrotation Yrotation Xrotation
          JOINT RightArm
          {
            OFFSET -9.155056 0 4.247191
            CHANNELS 3 Zrotation Yrotation Xrotation
            JOINT RightForearm
            {
              OFFSET 0 0 -25.771955
              CHANNELS 3 Zrotation Yrotation Xrotation
              JOINT RightHand
              {
                OFFSET 0 0 -25.197169
                CHANNELS 3 Zrotation Yrotation Xrotation
              }
            }
          }
        }
        JOINT Neck
        {
          OFFSET 0 0 15.101124
          CHANNELS 3 Zrotation Yrotation Xrotation
          JOINT Head
          {
            OFFSET 0 0 11.325843
            CHANNELS 3 Zrotation Yrotation Xrotation
            End Site
            {
              OFFSET 0 0 14.157303
            }
          }
        }
      }
    }
  }
}
MOTION
Frames: 13
Frame Time: 0.0
0.0  93.25843  0.0  -0.946423  37.82117  -92.346377  16.176185  -23.788154  18.727186  -11.893397  4.61347  10.349682  6.710744  1.690727  1.460808  -17.518523  -8.221507  -35.385075  -6.287812  24.311599  36.146684  2.20856  1.88413  3.470808  0.343132  0.25776  2.047838  0.958989  0.674925  5.601269  0.958989  0.674925  5.601268  -18.431075  23.959677  8.618695  118.673761  49.735197  -166.119164  -21.414937  -2.514862  79.0989  77.265674  -3.824259  -9.002299  10.307882  -10.911471  11.156417  -15.852191  78.960251  -59.455628  -43.601653  -33.564901  -86.376378  56.890232  6.76324  -9.892574  -19.966761  -0.139591  6.191348  -14.975495  -0.307534  4.64484  
0.0  93.25843  0.0  -0.259803  37.248533  -91.834709  15.821051  -21.982313  19.133505  -12.248997  3.617068  9.691975  7.886346  1.887696  2.056746  -17.556431  -7.431203  -36.154769  -6.408041  24.009421  36.529219  2.251255  1.809114  3.583757  0.516288  0.434639  2.013593  1.446403  1.144065  5.513455  1.446403  1.144064  5.513455  -18.684064  23.48433  9.149618  120.507614  49.872806  -165.164784  -21.520527  -1.883886  77.852798  77.412963  -3.536891  -9.579795  9.721483  -11.122899  11.17009  -8.554766  78.153344  -51.049209  -42.051852  -35.698318  -88.889639  56.830915  6.596298  -9.887098  -20.285544  -0.320044  6.599062  -15.212798  -0.45989  4.945134  
0.0  93.25843  0.0  0.212753  37.141214  -91.126923  15.644287  -19.879883  19.126498  -11.431982  2.109398  9.612991  7.851004  1.886059  2.012515  -18.313643  -7.051698  -37.038845  -6.253327  23.592579  36.847125  2.246403  1.754307  3.672789  0.598087  0.54535  1.927097  1.677306  1.441825  5.281421  1.677306  1.441825  5.281421  -18.824635  23.16705  9.576139  122.107636  50.043678  -164.209743  -22.026183  -1.277308  76.651311  77.458166  -3.323007  -9.772852  9.130456  -11.30786  11.102465  1.826841  77.322674  -41.32427  -41.530511  -35.504683  -90.550068  56.883156  6.415147  -9.846604  -20.526813  -0.37895  6.887471  -15.393138  -0.516479  5.159774  
0.0  93.25843  0.0  0.382341  36.473645  -90.86877  15.775732  -18.483088  18.984921  -11.434034  1.344825  9.477407  8.432113  1.720655  2.109787  -18.753842  -6.9549  -37.711499  -6.011272  23.279343  37.212239  2.401671  1.623944  3.788953  0.73553  0.567378  1.860405  2.053087  1.493087  5.10275  2.053087  1.493087  5.10275  -18.969763  23.098206  9.855816  123.656332  50.250937  -163.30906  -22.573338  -0.501459  75.681226  77.453078  -3.09062  -10.059616  8.615396  -11.371268  11.143622  10.950267  76.503503  -32.84871  -41.189617  -34.6759  -92.152807  57.028872  6.173488  -9.777542  -20.65695  -0.255265  7.07372  -15.492229  -0.431371  5.303856  
0.0  93.25843  0.0  0.599399  36.531429  -90.484822  15.019459  -17.066352  19.12143  -11.80405  0.622654  8.978119  9.172909  1.595193  2.137286  -19.809314  -7.132653  -38.401954  -5.708717  23.118515  37.529922  2.598756  1.54963  3.88765  0.737427  0.540416  1.778136  2.054446  1.421896  4.877015  2.054446  1.421896  4.877014  -19.10062  23.285376  10.011863  124.828274  50.600431  -162.738075  -23.073732  0.220293  75.088836  77.179265  -2.841923  -10.520847  8.091511  -11.321584  11.257311  18.515284  75.68008  -25.807057  -40.842721  -33.559898  -93.745339  57.324282  5.920061  -9.815907  -20.71368  -0.037118  7.135507  -15.537371  -0.270275  5.357692  
0.0  93.25843  0.0  0.516702  36.026411  -90.409211  14.98711  -16.33553  19.687676  -12.499055  0.011631  7.989947  9.97978  1.621289  2.239318  -20.421746  -7.595396  -38.901434  -5.478908  23.05383  37.738754  3.244505  1.460791  4.034123  0.796413  0.492349  1.736219  2.21122  1.287665  4.761961  2.21122  1.287665  4.76196  -19.255668  23.385924  9.958612  125.801875  51.087399  -162.337988  -23.506734  0.678028  74.80473  76.862933  -2.786602  -10.949638  7.537583  -11.378064  11.274837  27.7665  74.772024  -17.545378  -41.043409  -31.950829  -95.307182  57.709783  5.792178  -10.029735  -20.779613  0.064166  7.041645  -15.58793  -0.191771  5.29069  
0.0  93.25843  0.0  0.386319  35.309236  -90.479156  14.839232  -16.19332  20.37332  -12.643751  -0.021226  6.983352  10.558441  1.595958  2.350074  -20.763388  -8.029507  -39.16838  -5.191076  22.947022  37.970452  3.486421  1.372497  4.104711  0.897681  0.433294  1.711885  2.48319  1.119978  4.695025  2.48319  1.119978  4.695025  -19.650523  23.520706  9.909021  126.774225  51.80373  -161.876137  -23.816599  0.953841  74.764414  76.806369  -2.855918  -11.18291  6.820921  -11.353185  11.432293  31.979048  73.769154  -13.688438  -40.111057  -31.044256  -97.157281  58.08567  5.695018  -10.45557  -20.74659  0.08571  6.916204  -15.563301  -0.170936  5.197186  
0.0  93.25843  0.0  -0.152668  33.540145  -91.154147  15.457369  -16.60366  21.30558  -12.04155  0.130889  6.188361  11.073513  1.617172  2.470206  -20.076988  -8.597233  -38.933675  -4.989634  22.79966  38.235377  3.636713  1.299798  4.165309  0.837418  0.412606  1.66253  2.316298  1.069501  4.558388  2.316298  1.069501  4.558388  -18.974043  23.111806  9.899384  129.261522  52.378875  -160.720129  -23.990075  1.147098  74.930792  76.979756  -2.993921  -11.22261  8.269388  -11.68322  12.215346  34.461783  72.8095  -11.303646  -38.649398  -30.553639  -99.193612  58.496537  5.682991  -11.012409  -19.584863  0.075166  7.016462  -14.691829  -0.168859  5.271191  
0.0  93.25843  0.0  -0.15747  32.963285  -91.152535  15.136152  -16.359742  21.826513  -10.970312  0.07895  5.673605  11.068202  1.718619  2.458268  -20.347144  -8.873595  -39.068691  -4.982771  22.72672  38.388207  3.561605  1.290229  4.182989  0.868259  0.378687  1.645662  2.397959  0.975339  4.511486  2.397959  0.975339  4.511486  -19.539287  23.062281  9.690763  130.418553  53.433939  -160.127836  -23.998654  1.177104  75.373865  77.109685  -3.184763  -11.187072  7.400145  -11.477615  12.549653  37.592338  71.65083  -8.721759  -37.109221  -30.180171  -101.296913  58.773266  5.544434  -11.605182  -19.390843  0.014526  6.820197  -14.545466  -0.205919  5.121738  
0.0  93.25843  0.0  -0.193723  32.241831  -91.129096  15.329898  -16.033166  22.342612  -10.262772  -0.292824  4.974781  10.810973  1.930643  2.474254  -20.469109  -9.106635  -39.210808  -5.092861  22.60376  38.607645  3.322891  1.27452  4.188783  0.638618  0.410359  1.555387  1.771299  1.079991  4.262341  1.771299  1.079991  4.262341  -18.230381  22.767547  9.931862  131.551754  54.641892  -159.476578  -23.97853  1.026885  76.13042  77.060221  -3.416448  -11.140669  8.211998  -11.51824  13.264759  41.029873  70.384944  -5.989791  -35.532685  -29.776148  -103.34464  58.987908  5.455435  -11.996743  -18.201473  -0.010504  6.863958  -13.653049  -0.212679  5.153089  
0.0  93.25843  0.0  -0.202907  31.450099  -91.099069  15.81247  -15.851342  22.827285  -9.645286  -0.558675  4.405295  10.426227  2.011104  2.336151  -20.465323  -9.231284  -39.33968  -5.578017  22.607442  38.786074  3.003049  1.300831  4.172182  0.628878  0.378737  1.527498  1.742223  0.994975  4.185079  1.742223  0.994975  4.18508  -18.656406  22.571708  9.629907  132.405366  55.963696  -158.965988  -24.134131  0.779408  77.120168  76.981419  -3.676794  -11.174663  7.612386  -11.220708  13.433565  45.38831  68.870315  -2.469463  -34.131587  -29.227195  -105.336626  59.228188  5.330389  -12.121532  -17.777453  0.050722  6.708776  -13.335567  -0.157397  5.038124  
0.0  93.25843  0.0  -0.224661  30.632642  -91.12679  16.354381  -15.739484  23.255109  -9.511532  -0.734679  3.811708  10.267098  1.967863  2.249882  -20.496683  -9.298937  -39.470885  -6.349781  22.767329  38.994054  2.837195  1.296694  4.262562  0.419311  0.413261  1.4722  1.170909  1.103568  4.031485  1.170909  1.103568  4.031485  -17.829524  22.123783  9.497767  132.923911  57.384884  -158.734071  -24.57425  0.528867  78.27396  77.075011  -3.886512  -11.345799  8.284281  -11.296178  13.563871  49.974562  67.244156  1.33525  -33.025327  -28.487648  -107.108206  59.367254  5.204963  -12.14154  -16.650007  0.07367  6.763694  -12.490146  -0.129241  5.079257  
0.0  93.25843  0.0  -0.220608  30.001251  -91.130038  17.148992  -15.82795  23.807041  -9.810696  -0.887377  3.021198  10.329006  1.791217  2.248049  -20.795566  -9.359301  -39.645862  -7.576204  23.233931  39.067906  2.653852  1.427376  4.297568  0.327265  0.367688  1.436175  0.916076  0.985179  3.930803  0.916075  0.985179  3.930802  -18.303305  22.059584  9.001528  133.158192  58.903924  -158.736332  -25.280432  0.268681  79.4801  77.293999  -4.062476  -11.608616  7.951677  -11.082232  13.570032  54.987703  65.552307  5.355942  -32.259405  -27.515083  -108.633903  59.643179  5.092845  -11.940449  -16.099053  0.287844  6.757831  -12.079209  0.037819  5.080135  
